<?xml version="1.0" encoding="UTF-8" standalone="no"?>
<svg
   width="4452.0464"
   height="4074.5024"
   viewBox="0 0 4452.0465 4074.5024"
   version="1.1"
   xml:space="preserve"
   style="clip-rule:evenodd;fill-rule:evenodd;stroke-linejoin:round;stroke-miterlimit:1.41421"
   id="svg15"
   sodipodi:docname="rustar-icon.svg"
   inkscape:version="1.3.2 (091e20e, 2023-11-25)"
   xmlns:inkscape="http://www.inkscape.org/namespaces/inkscape"
   xmlns:sodipodi="http://sodipodi.sourceforge.net/DTD/sodipodi-0.dtd"
   xmlns="http://www.w3.org/2000/svg"
   xmlns:svg="http://www.w3.org/2000/svg"><defs
   id="defs15" /><sodipodi:namedview
   id="namedview15"
   pagecolor="#505050"
   bordercolor="#eeeeee"
   borderopacity="1"
   inkscape:showpageshadow="0"
   inkscape:pageopacity="0"
   inkscape:pagecheckerboard="0"
   inkscape:deskcolor="#505050"
   inkscape:zoom="0.054554921"
   inkscape:cx="5123.2776"
   inkscape:cy="3995.9732"
   inkscape:window-width="2200"
   inkscape:window-height="1239"
   inkscape:window-x="227"
   inkscape:window-y="249"
   inkscape:window-maximized="0"
   inkscape:current-layer="svg15"><inkscape:page
     x="0"
     y="0"
     width="4452.0464"
     height="4074.5024"
     id="page16"
     margin="0 0 0 0"
     bleed="0"
     inkscape:export-filename="rustar-logo.png"
     inkscape:export-xdpi="28.530001"
     inkscape:export-ydpi="28.530001" /></sodipodi:namedview>
    <g
   transform="matrix(4.16667,0,0,4.16667,-8.8780251e-7,-1.9911846e-6)"
   id="g15"
   style="clip-rule:evenodd;fill-rule:evenodd;stroke-linejoin:round;stroke-miterlimit:1.41421">
        <path
   d="m 525.403,293.05 c -131.633,0 -251.228,15.825 -339.77,41.615 v 220.298 c 88.542,25.79 208.137,41.614 339.77,41.614 150.657,0 285.535,-20.729 376.134,-53.402 V 346.457 C 810.938,313.781 676.06,293.05 525.403,293.05 Z"
   style="fill:#8f1e1c;fill-rule:nonzero"
   id="path1" />
        <path
   d="m 907.423,492.442 c -3.857,-10.663 -4.629,-24.154 -1.361,-37.162 5.85,-23.289 22.421,-36.198 37.013,-28.833 3.618,1.827 6.774,4.731 9.387,8.418 0.239,-0.001 0.478,0 0.715,0.016 0,0 44.552,53.106 3.313,116.003 -0.895,3.569 -76.534,91.718 -94.043,94.524 -11.46,1.836 14.891,-89.998 44.976,-152.966 z"
   style="fill:#8f1e1c;fill-rule:nonzero"
   id="path2" />
        <path
   d="m 176.479,482.021 c 5.3,-9.63 7.158,-22.788 4.217,-36.425 -5.266,-24.416 -23.91,-41.11 -41.642,-37.285 -4.398,0.948 -8.325,3.072 -11.666,6.098 -0.282,-0.058 -0.564,-0.113 -0.845,-0.153 0,0 -56.292,41.952 -12.057,113.924 0.805,3.741 83.851,108.838 104.311,115.763 13.391,4.532 -11.247,-92.525 -42.318,-161.922 z"
   style="fill:#8f1e1c;fill-rule:nonzero"
   id="path3" />
        <path
   d="m 97.467,488.066 0.007,0.015 c 0.185,0.145 0.357,0.276 -0.007,-0.015 z"
   style="fill:#e33a25;fill-rule:nonzero"
   id="path4" />
        <path
   d="m 993.119,412.903 c -0.88,-3.064 -1.756,-6.126 -2.662,-9.162 l 30.683,-44.451 c 3.13,-4.522 3.77,-10.398 1.73,-15.555 -2.04,-5.13 -6.49,-8.81 -11.76,-9.71 l -51.886,-8.805 c -2.008,-4.102 -4.116,-8.142 -6.23,-12.15 l 21.797,-49.903 c 2.243,-5.087 1.769,-10.995 -1.203,-15.608 -2.961,-4.636 -7.99,-7.344 -13.349,-7.133 l -52.656,1.913 c -2.727,-3.55 -5.496,-7.068 -8.322,-10.521 l 12.101,-53.49 c 1.225,-5.433 -0.322,-11.118 -4.103,-15.064 -3.762,-3.932 -9.229,-5.559 -14.426,-4.283 l -51.289,12.608 c -3.321,-2.935 -6.699,-5.833 -10.114,-8.673 l 1.848,-54.914 c 0.198,-5.559 -2.393,-10.841 -6.844,-13.925 -4.446,-3.104 -10.093,-3.573 -14.956,-1.266 l -47.847,22.747 c -3.854,-2.21 -7.728,-4.4 -11.644,-6.517 l -8.455,-54.115 c -0.857,-5.482 -4.385,-10.138 -9.326,-12.265 -4.923,-2.138 -10.568,-1.448 -14.891,1.808 l -42.659,32.007 c -4.2,-1.396 -8.419,-2.733 -12.692,-4.011 L 645.578,21.148 c -1.87,-5.229 -6.181,-9.071 -11.438,-10.151 -5.239,-1.071 -10.63,0.743 -14.263,4.802 L 583.97,55.971 c -4.342,-0.5 -8.685,-0.956 -13.043,-1.332 L 543.204,7.926 c -2.81,-4.732 -7.77,-7.612 -13.116,-7.612 -5.334,0 -10.304,2.88 -13.09,7.612 l -27.733,46.713 c -4.358,0.376 -8.722,0.832 -13.056,1.332 l -35.91,-40.172 c -3.636,-4.059 -9.047,-5.873 -14.268,-4.802 -5.255,1.092 -9.573,4.922 -11.433,10.151 l -18.402,51.317 c -4.26,1.278 -8.481,2.627 -12.691,4.011 L 340.861,44.469 c -4.336,-3.266 -9.98,-3.955 -14.916,-1.808 -4.919,2.127 -8.461,6.783 -9.313,12.265 l -8.461,54.115 c -3.914,2.117 -7.789,4.294 -11.653,6.517 L 248.676,92.811 c -4.858,-2.315 -10.529,-1.838 -14.954,1.266 -4.445,3.084 -7.042,8.366 -6.84,13.925 l 1.835,54.914 c -3.405,2.84 -6.774,5.738 -10.112,8.673 l -51.279,-12.608 c -5.211,-1.265 -10.67,0.351 -14.441,4.283 -3.795,3.946 -5.332,9.631 -4.113,15.064 l 12.079,53.49 c -2.802,3.467 -5.575,6.971 -8.293,10.521 l -52.655,-1.913 c -5.315,-0.157 -10.387,2.497 -13.356,7.133 -2.975,4.613 -3.425,10.521 -1.211,15.608 l 21.814,49.903 c -2.119,4.008 -4.224,8.048 -6.249,12.15 l -51.883,8.805 c -5.271,0.888 -9.714,4.566 -11.764,9.71 -2.037,5.157 -1.376,11.033 1.735,15.555 l 30.69,44.451 c -0.237,0.784 -0.455,1.576 -0.69,2.364 l -16.863,17.912 45.341,64.049 c 0,0 435.152,200.732 838.797,3.396 46.108,-8.273 56.855,-78.559 56.855,-78.559 z"
   style="fill:#e43a25;fill-rule:nonzero"
   id="path5" />
        <path
   d="m 608.303,376.759 c 0,0 48.157,-52.729 96.315,0 0,0 37.84,70.312 0,105.463 0,0 -61.917,49.217 -96.315,0 0,0 -41.279,-38.672 0,-105.463 z"
   style="fill:#030404;fill-rule:nonzero"
   id="path6" />
        <path
   d="m 664.057,396.32 c 0,20.533 -12.103,37.179 -27.03,37.179 -14.924,0 -27.027,-16.646 -27.027,-37.179 0,-20.532 12.103,-37.18 27.027,-37.18 14.927,0 27.03,16.648 27.03,37.18 z"
   style="fill:#ffffff;fill-rule:nonzero"
   id="path7" />
        <path
   d="m 393.365,362.361 c 0,0 82.608,-36.576 105.154,45.062 0,0 23.618,95.154 -67.837,100.525 0,0 -116.622,-22.462 -37.317,-145.587 z"
   style="fill:#030404;fill-rule:nonzero"
   id="path8" />
        <path
   d="m 434.855,397.668 c 0,21.173 -12.48,38.346 -27.877,38.346 -15.391,0 -27.874,-17.173 -27.874,-38.346 0,-21.178 12.483,-38.346 27.874,-38.346 15.397,0 27.877,17.168 27.877,38.346 z"
   style="fill:#ffffff;fill-rule:nonzero"
   id="path9" />
        <path
   d="m 111.602,499.216 c 10.967,-12.463 37.611,-27.557 35.57,-46.282 -3.653,-33.527 -31.456,-57.999 -62.099,-54.659 -7.6,0.828 -14.658,3.292 -20.924,7.036 -0.462,-0.107 -0.925,-0.211 -1.388,-0.294 0,0 -103.631,50.873 -44.564,152.657 0.557,5.137 117.848,155.668 150.788,167.131 21.559,7.502 -19.911,-128.64 -57.383,-225.589 z"
   style="fill:#e43a25;fill-rule:nonzero"
   id="path10" />
        <path
   d="m 953.549,494.673 c -12.693,-10.7 -46.162,-20.418 -46.92,-39.238 -1.356,-33.698 22.512,-62.021 53.312,-63.26 7.638,-0.308 14.984,1.083 21.735,3.857 0.442,-0.174 0.884,-0.346 1.329,-0.497 0,0 110.025,34.951 66.695,144.366 0.21,5.163 -93.468,171.416 -124.345,187.635 -20.209,10.615 5.506,-131.431 28.194,-232.863 z"
   style="fill:#e43a25;fill-rule:nonzero"
   id="path11" />
        <path
   d="m 191.142,495.558 c 0,0 -1.383,137.296 133.166,167.932 l 28.054,-56.363 c 0,0 -97.495,9.431 -104.995,-111.569 z"
   style="fill:#e43a25;fill-rule:nonzero"
   id="path12" />
        <path
   d="m 876.362,495.558 c 0,0 1.382,137.296 -133.167,167.932 l -28.054,-56.363 c 0,0 97.495,9.431 104.995,-111.569 z"
   style="fill:#e43a25;fill-rule:nonzero"
   id="path13" />
        
        
    </g>
<g
   id="g27"
   transform="translate(1247.0089,2084.6975)">
	<path
   style="fill:#fab85a"
   d="m 1959.47,861.938 c -16.479,-23.085 -44.065,-35.461 -71.251,-43.552 -149.679,-44.552 -403.03,-4.958 -524.773,-116.471 -51.457,-47.133 -80.646,-115.582 -105.496,-176.083 -65.82,-160.25 -92.219,-274.646 -112.847,-307.219 -1.621,-2.56 -45.724,-59.79 -84.443,-55.518 -38.719,-4.271 -82.87,52.929 -84.443,55.518 -41.226,67.884 -70.434,173.395 -123.259,310.74 C 829.479,590.399 788.2,682.955 736.743,730.088 615,841.601 382.78,773.833 233.101,818.386 c -27.186,8.092 -54.772,20.467 -71.251,43.552 -23.408,32.791 -17.702,79.85 4.111,113.723 21.811,33.874 56.677,56.985 91.849,76.666 103.403,57.859 137.869,62.86 232.414,137.336 57.131,45.004 112.1,101.531 101.304,180.167 -16.849,122.725 -85.298,257.971 -140.04,367.455 -56.347,112.693 -18.433,225.125 103.453,221.062 191.041,-6.368 283.077,-254.593 481.088,-263.415 68.688,-3.06 136.55,19.717 196.408,53.547 90.114,50.931 160.4,127.712 254.489,172.532 82.43,39.267 217.557,25.023 197.145,-97.446 -31.695,-190.17 -72.666,-253.759 -122.309,-366.164 -53.782,-121.778 -39.118,-192.752 69.484,-278.302 94.547,-74.477 128.859,-68.913 232.263,-126.773 35.172,-19.681 70.037,-42.792 91.849,-76.666 21.814,-33.872 27.52,-80.931 4.112,-113.722 z"
   id="path1-0" />
	<path
   style="fill:#f59a33"
   d="m 1619.224,1585.122 c 1.995,40.964 4.048,81.917 2.631,122.986 -1.125,32.628 -3.841,65.956 -13.003,97.431 -6.99,24.014 -18.587,48.782 -40.168,62.931 -22.986,15.07 -51.868,12.599 -76.868,4.4 -19.672,-6.452 -38.229,-16.17 -55.828,-26.973 -24.478,-15.026 -47.754,-31.885 -69.823,-50.259 -41.698,-34.716 -78.784,-74.833 -121.917,-107.84 -45.611,-34.903 -99.019,-58.881 -156.64,-64.224 -132.659,-12.302 -241.834,85.789 -333.499,167.758 -37.894,33.885 -79.762,67.631 -126.271,88.81 -22.037,10.035 -46.379,17.591 -70.868,15.748 -25.663,-1.931 -48.132,-14.672 -64.53,-34.303 -30.194,-36.147 -20.587,-86.737 -6.071,-127.441 17.072,-47.871 43.395,-91.559 67.999,-135.782 13.642,-24.519 26.511,-49.562 39.108,-74.628 16.097,-32.027 30.862,-65.021 39.484,-99.932 8.567,-34.689 11.152,-72.79 1.413,-107.551 -8.095,-28.891 -20.87,-56.216 -37.81,-80.979 -62.289,-91.05 -170.363,-138.167 -270.213,-175.396 -43.091,-16.067 -87.038,-33.495 -124.666,-60.42 -22.739,-16.27 -43.283,-37.2 -52.014,-62.703 3.146,13.788 8.717,27.146 16.289,38.904 21.811,33.873 56.677,56.985 91.849,76.666 103.403,57.859 137.87,62.86 232.414,137.336 57.131,45.004 112.1,101.531 101.304,180.167 -16.849,122.725 -85.298,257.971 -140.04,367.455 -56.347,112.693 -18.434,225.124 103.453,221.062 191.041,-6.368 283.077,-254.593 481.088,-263.415 68.688,-3.061 136.55,19.717 196.408,53.547 90.115,50.931 160.401,127.711 254.49,172.532 82.43,39.267 217.556,25.023 197.146,-97.446 -18.494,-110.97 -40.154,-178.823 -64.847,-238.441 z"
   id="path2-8" />
	<path
   style="fill:#f59a33"
   d="m 157.26,869.622 c 0.35,-0.714 0.868,-1.383 1.631,-1.938 0.679,-0.492 1.378,-0.955 2.061,-1.441 0.649,-0.666 1.288,-1.34 1.885,-2.052 0.151,-0.18 0.298,-0.363 0.448,-0.544 0.286,-0.405 0.581,-0.804 0.859,-1.216 1.309,-1.937 3.443,-2.732 5.583,-2.185 7.435,-4.88 15.083,-9.425 22.997,-13.509 96.665,-49.89 209.198,-31.672 313.044,-24.432 53.497,3.729 106.987,4.602 159.78,-6.128 43.636,-8.87 85.455,-25.603 121.629,-51.793 67.086,-48.57 106.463,-124.363 132.734,-201.046 13.971,-40.781 24.761,-82.577 34.711,-124.494 9.71,-40.905 19.423,-81.876 28.081,-123.016 8.298,-39.422 16.322,-80.057 35.144,-116.075 6.854,-13.115 15.317,-24.845 25.252,-34.821 -33.402,9.787 -65.546,51.477 -66.884,53.68 -41.226,67.884 -70.433,173.395 -123.259,310.74 C 829.477,590.399 788.197,682.954 736.741,730.087 615,841.601 382.78,773.833 233.101,818.386 c -27.186,8.092 -54.772,20.467 -71.251,43.552 -1.844,2.584 -3.498,5.26 -4.986,8.007 0.135,-0.104 0.264,-0.215 0.396,-0.323 z"
   id="path3-1" />
	<path
   style="fill:#f59a33"
   d="m 1959.47,861.938 c -16.479,-23.085 -44.065,-35.461 -71.251,-43.552 -149.679,-44.552 -403.03,-4.958 -524.773,-116.471 -51.457,-47.133 -80.646,-115.582 -105.496,-176.083 -35.393,-86.171 -59.377,-159.051 -77.206,-213.112 -3.998,57.85 -5.835,115.879 2.082,173.373 11.612,84.329 46.837,163.337 107.107,224.109 52.819,53.259 121.977,90.434 195.706,104.622 15.841,3.049 32.249,3.493 48.326,4.052 22.796,0.791 45.612,0.97 68.418,1.352 52.224,0.876 104.691,2.253 156.448,9.827 40.962,5.995 88.417,15.391 119.724,44.721 33.321,31.216 28.538,80.1 3.944,115.32 -17.312,24.794 -41.234,44.401 -65.932,61.467 -25.424,17.568 -52.534,32.553 -79.94,46.767 -54.54,28.286 -112.525,54.133 -155.335,99.618 -20.523,21.805 -36.099,47.995 -42.241,77.508 -1.892,9.094 -2.81,18.252 -2.951,27.406 10.928,-42.933 41.597,-81.58 95.146,-123.761 94.547,-74.478 128.859,-68.912 232.263,-126.773 35.172,-19.681 70.037,-42.793 91.849,-76.666 21.814,-33.874 27.52,-80.933 4.112,-113.724 z"
   id="path4-4" />
	<path
   style="fill:#ffe193"
   d="m 1788.863,910.895 c -15.316,-10.999 -34.574,-16.667 -53.32,-16.481 -45.17,0.448 -90.323,6.992 -135.532,3.991 -56.775,-3.768 -108.682,10.988 -164.729,-1.042 -53.347,-11.451 -99.927,-41.745 -140.702,-77.091 -36.525,-31.662 -67.705,-69.609 -90.496,-112.301 -19.288,-36.129 -32.972,-75.978 -40.253,-116.298 -6.569,-36.372 -9.367,-73.369 -13.662,-110.049 -4.617,-39.423 -2.663,-101.78 -15.018,-139.642 -9.949,-30.488 -31.695,-54.586 -62.386,-55.56 -0.058,-0.002 -0.068,-0.07 -0.117,-0.098 -0.054,0.028 -0.074,0.071 -0.129,0.098 -27.637,13.285 -45.384,37.347 -54.593,66.167 -18.856,59.011 -9.032,123.285 -11.639,184.119 -2.803,65.408 -10.592,131.717 -39.84,191.203 -26.453,53.8 -70.241,95.57 -123.762,122.123 -77.69,38.543 -167.11,47.128 -252.648,49.464 -16.445,0.449 -32.742,0.66 -49.117,-1.01 -15.484,-1.58 -30.899,-3.811 -46.319,-5.905 -50.787,-6.895 -138.492,-31.254 -170.03,27.137 -9.804,18.15 0.663,34.591 14.881,46.452 19.403,16.187 44.129,26.341 67.563,35.093 22.668,8.466 45.864,15.366 69.108,22.046 63.465,18.237 127.848,43.732 180.873,83.806 27.101,20.482 51.102,45.141 68.585,74.411 18.44,30.872 28.708,65.78 31.682,101.528 2.153,25.88 -3.171,50.612 -11.417,75.063 -9.444,28.002 -21.894,54.976 -34.86,81.494 -29.182,59.681 -62.399,117.438 -88.945,178.395 -11.397,26.172 -21.749,53.237 -27.422,81.297 -4.093,20.248 -11.56,56.446 6.807,71.993 6.059,5.128 13.781,7.874 21.514,9.663 11.839,2.739 24.317,3.451 36.118,0.552 18.335,-4.504 33.54,-17.256 46.253,-31.214 25.326,-27.807 48.438,-57.857 77.152,-82.437 42.612,-36.478 84.091,-74.25 126.465,-111 17.552,-15.223 35.242,-30.324 53.593,-44.581 12.607,-9.795 25.58,-19.874 39.921,-27.041 9.784,-4.889 20.668,-7.456 31.278,-9.859 14.232,-3.223 28.796,-5.277 43.389,-5.749 25.38,-0.82 50.867,3.417 74.488,12.779 46.97,18.618 84.243,54.359 117.307,91.533 35.011,39.363 66.488,81.997 104.4,118.723 17.281,16.74 36.177,32.063 57.079,44.087 16.127,9.276 38.008,26.742 57.916,23.914 39.926,-5.679 52.51,-64.063 44.802,-92.776 -12.432,-46.306 -57.197,-88.67 -81.511,-128.892 -34.198,-56.574 -73.861,-115.933 -79.565,-183.634 -2.91,-34.522 4.954,-68.703 21.118,-99.233 6.477,-12.234 13.782,-24.797 23.648,-34.655 6.637,-6.632 14.17,-12.387 21.799,-17.821 45.94,-32.725 98.221,-56.818 147.872,-83.234 27.66,-14.716 55.222,-29.689 81.941,-46.071 35.917,-22.023 175.782,-80.691 141.477,-140.443 -5.304,-9.241 -12.559,-16.941 -21.017,-23.014 z"
   id="path5-9" />
	
		<circle
   transform="matrix(0.7071,-0.7071,0.7071,0.7071,-476.9055,1092.7102)"
   style="fill:#f6a033"
   cx="1080.5649"
   cy="1122.031"
   id="ellipse5"
   r="89.803001" />
	
		<circle
   transform="matrix(0.2567,-0.9665,0.9665,0.2567,-26.0122,1676.7072)"
   style="fill:#f6a033"
   cx="1077.0439"
   cy="855.26398"
   id="ellipse6"
   r="67.792" />
	
		<circle
   transform="matrix(0.7071,-0.7071,0.7071,0.7071,-120.3802,939.1978)"
   style="fill:#f6a033"
   cx="1073.522"
   cy="614.91101"
   id="ellipse7"
   r="46.661999" />
	
		<circle
   transform="matrix(0.7071,-0.7071,0.7071,0.7071,31.0946,882.2899)"
   style="fill:#f6a033"
   cx="1080.5649"
   cy="403.60999"
   id="ellipse8"
   r="46.661999" />
	
		<circle
   transform="matrix(0.628,-0.7782,0.7782,0.628,-509.3772,1060.3805)"
   style="fill:#f6a033"
   cx="854.46399"
   cy="1062.996"
   id="ellipse9"
   r="67.792" />
	
		<circle
   transform="matrix(0.9955,-0.0951,0.0951,0.9955,-92.4837,63.6673)"
   style="fill:#f6a033"
   cx="621.86499"
   cy="1002.331"
   id="ellipse10"
   r="46.661999" />
	
		<circle
   transform="matrix(0.9999,-0.0154,0.0154,0.9999,-14.4536,6.599)"
   style="fill:#f6a033"
   cx="420.08499"
   cy="939.22699"
   id="ellipse11"
   r="46.661999" />
	<path
   style="fill:#f6a033"
   d="m 1270.276,1010.909 c -36.087,9.979 -57.251,47.322 -47.272,83.408 9.979,36.086 47.322,57.251 83.408,47.272 36.086,-9.979 57.251,-47.321 47.272,-83.408 -9.979,-36.086 -47.322,-57.251 -83.408,-47.272 z"
   id="path11-5" />
	
		<circle
   transform="matrix(0.6222,-0.7829,0.7829,0.6222,-220.4406,1574.39)"
   style="fill:#f6a033"
   cx="1520.943"
   cy="1015.585"
   id="ellipse12"
   r="46.661999" />
	<path
   style="fill:#f6a033"
   d="m 1710.287,907.506 c -24.839,6.868 -39.406,32.572 -32.538,57.411 6.868,24.839 32.572,39.406 57.41,32.538 24.839,-6.868 39.406,-32.572 32.538,-57.411 -6.868,-24.838 -32.572,-39.406 -57.41,-32.538 z"
   id="path12-9" />
	<path
   style="fill:#f6a033"
   d="m 982.765,1373.802 c 21.704,-30.508 14.567,-72.834 -15.941,-94.538 -30.508,-21.704 -72.834,-14.567 -94.538,15.941 -21.704,30.508 -14.567,72.834 15.94,94.538 30.509,21.704 72.835,14.567 94.539,-15.941 z"
   id="path13-0" />
	
		<circle
   transform="matrix(0.5801,-0.8146,0.8146,0.5801,-915.1278,1281.4707)"
   style="fill:#f6a033"
   cx="785.32501"
   cy="1528.311"
   id="ellipse13"
   r="46.661999" />
	
		<circle
   transform="matrix(0.6098,-0.7926,0.7926,0.6098,-1090.103,1195.0601)"
   style="fill:#f6a033"
   cx="668.57397"
   cy="1704.568"
   id="ellipse14"
   r="46.661999" />
	
		<circle
   transform="matrix(0.6334,-0.7738,0.7738,0.6334,-583.6101,1401.5642)"
   style="fill:#f6a033"
   cx="1187.532"
   cy="1316.777"
   id="ellipse15"
   r="67.792" />
	<path
   style="fill:#f6a033"
   d="m 1368.014,1481.267 c -15.681,-20.452 -44.971,-24.319 -65.423,-8.638 -20.451,15.68 -24.318,44.971 -8.638,65.422 15.681,20.451 44.971,24.318 65.422,8.638 20.453,-15.68 24.32,-44.971 8.639,-65.422 z"
   id="path15-2" />
	<path
   style="fill:#f6a033"
   d="m 1502.173,1644.665 c -15.681,-20.451 -44.971,-24.318 -65.423,-8.638 -20.451,15.681 -24.318,44.972 -8.637,65.423 15.68,20.451 44.971,24.318 65.422,8.638 20.451,-15.682 24.318,-44.972 8.638,-65.423 z"
   id="path16" />
	<g
   id="g26">
		<path
   style="fill:#f9b233"
   d="m 1252.642,921.296 c 0,11.402 -9.243,20.645 -20.645,20.645 -11.402,0 -20.646,-9.243 -20.646,-20.645 0,-11.402 9.244,-20.646 20.646,-20.646 11.402,0 20.645,9.244 20.645,20.646 z"
   id="path17" />
		<path
   style="fill:#f9b233"
   d="m 1439.98,935.382 c 0,13.728 -11.128,24.856 -24.856,24.856 -13.728,0 -24.856,-11.128 -24.856,-24.856 0,-13.728 11.129,-24.856 24.856,-24.856 13.727,0 24.856,11.129 24.856,24.856 z"
   id="path18" />
		<path
   style="fill:#f9b233"
   d="m 1630.15,942.426 c 0,13.727 -11.128,24.856 -24.856,24.856 -13.728,0 -24.856,-11.129 -24.856,-24.856 0,-13.728 11.128,-24.856 24.856,-24.856 13.728,0 24.856,11.128 24.856,24.856 z"
   id="path19" />
		<circle
   style="fill:#f9b233"
   cx="1189.7371"
   cy="1002.294"
   r="16.837999"
   id="circle19" />
		<circle
   style="fill:#f9b233"
   cx="1271.647"
   cy="985.31702"
   r="16.837999"
   id="circle20" />
		<path
   style="fill:#f9b233"
   d="m 1212.203,871.099 c 0,10.211 -8.277,18.489 -18.488,18.489 -10.211,0 -18.489,-8.278 -18.489,-18.489 0,-10.211 8.278,-18.489 18.489,-18.489 10.211,0 18.488,8.278 18.488,18.489 z"
   id="path20" />
		<path
   style="fill:#f9b233"
   d="m 1296.723,858.773 c 0,10.211 -8.278,18.489 -18.489,18.489 -10.211,0 -18.488,-8.278 -18.488,-18.489 0,-10.211 8.277,-18.488 18.488,-18.488 10.212,-10e-4 18.489,8.277 18.489,18.488 z"
   id="path21" />
		<path
   style="fill:#f9b233"
   d="m 1169.781,942.91 c 0,7.78 -6.307,14.087 -14.087,14.087 -7.78,0 -14.087,-6.307 -14.087,-14.087 0,-7.78 6.307,-14.086 14.087,-14.086 7.78,0 14.087,6.306 14.087,14.086 z"
   id="path22" />
		<path
   style="fill:#f9b233"
   d="m 1314.17,930.584 c 0,7.78 -6.307,14.087 -14.087,14.087 -7.78,0 -14.087,-6.307 -14.087,-14.087 0,-7.779 6.307,-14.086 14.087,-14.086 7.78,0 14.087,6.307 14.087,14.086 z"
   id="path23" />
		<path
   style="fill:#f9b233"
   d="m 1349.386,884.803 c 0,7.78 -6.307,14.086 -14.087,14.086 -7.78,0 -14.087,-6.307 -14.087,-14.086 0,-7.779 6.307,-14.087 14.087,-14.087 7.78,0 14.087,6.307 14.087,14.087 z"
   id="path24" />
		<path
   style="fill:#f9b233"
   d="m 1353.998,977.643 c 0,7.085 -5.744,12.829 -12.829,12.829 -7.085,0 -12.829,-5.743 -12.829,-12.829 0,-7.086 5.744,-12.829 12.829,-12.829 7.085,0 12.829,5.743 12.829,12.829 z"
   id="path25" />
		
			<circle
   transform="matrix(0.1602,-0.9871,0.9871,0.1602,324.8303,2259.6008)"
   style="fill:#f9b233"
   cx="1490.337"
   cy="938.90399"
   id="ellipse25"
   r="12.829" />
		<path
   style="fill:#f9b233"
   d="m 1411.602,1030.467 c 0,7.086 -5.744,12.829 -12.829,12.829 -7.085,0 -12.829,-5.744 -12.829,-12.829 0,-7.085 5.744,-12.829 12.829,-12.829 7.085,0 12.829,5.744 12.829,12.829 z"
   id="path26" />
	</g>
</g><path
   d="m 3676.7398,2591.603 c -86.39,-203.0797 -359.4493,-281.3426 -609.8903,-174.8035 -220.4408,93.7747 -349.7068,299.444 -318.6386,485.8665 174.7396,-4.447 362.0934,-17.6318 544.3061,-45.8831 0,0 -105.9261,175.07 -262.8315,328.4978 106.7921,26.4398 230.9481,17.581 350.0067,-33.067 250.4452,-106.5391 383.4375,-357.5351 297.0476,-560.6107 z"
   style="clip-rule:evenodd;fill:#e43a25;fill-rule:nonzero;stroke-width:4.16667;stroke-linejoin:round;stroke-miterlimit:1.41421"
   id="path14" /><path
   d="m 1325.2252,2855.3112 c 0,0 228.8823,37.9819 542.9003,56.1252 34.0699,-196.9441 -108.8818,-411.2906 -345.3267,-500.2003 -261.2214,-98.2212 -537.54539,-6.1375 -617.19433,205.6791 -79.64889,211.8166 67.54506,463.1527 328.76633,561.3781 115.795,43.5429 234.5415,49.6503 337.8278,24.5421 -148.6844,-157.1045 -246.9734,-347.5242 -246.9734,-347.5242 z"
   style="clip-rule:evenodd;fill:#e43a25;fill-rule:nonzero;stroke-width:4.16667;stroke-linejoin:round;stroke-miterlimit:1.41421"
   id="path15" /></svg>
